<svg height="512pt" viewBox="0 0 512 512" width="512pt" xmlns="http://www.w3.org/2000/svg"><path d="m512 256c0 141.386719-114.613281 256-256 256s-256-114.613281-256-256 114.613281-256 256-256 256 114.613281 256 256zm0 0" fill="#0095ff"/><path d="m112.585938 309.023438 197.277343 197.28125c98.148438-21.023438 175.421875-98.292969 196.441407-196.441407l-197.28125-197.277343zm0 0" fill="#0050c3"/><path d="m399.414062 202.976562h-90.390624v-90.390624h-106.046876v90.390624h-90.390624v106.046876h90.390624v90.390624h106.046876v-90.390624h90.390624zm0 0" fill="#00ffe7"/><path d="m399.414062 202.976562h-90.390624v-90.390624h-53.023438v286.828124h53.023438v-88.570312h90.390624zm0 0" fill="#00aba2"/></svg>